#define 6093_f25a4f7c165f1f7fa66fd18a0bb555ea98460dc7b973b3134b512a26b970b150_width 32
#define 6093_f25a4f7c165f1f7fa66fd18a0bb555ea98460dc7b973b3134b512a26b970b150_height 32
static char 6093_f25a4f7c165f1f7fa66fd18a0bb555ea98460dc7b973b3134b512a26b970b150_bits[] = {
  0x00, 0x00, 0xC0, 0x3F, 0x00, 0x00, 0x60, 0x08, 0x00, 0x00, 0x20, 0x00, 
  0x00, 0x00, 0x30, 0x40, 0x00, 0x00, 0x3C, 0x40, 0x00, 0x00, 0x3C, 0x60, 
  0x00, 0x00, 0x7F, 0x20, 0x00, 0xC0, 0x7F, 0x10, 0x00, 0xF0, 0xFF, 0x10, 
  0x00, 0xF8, 0xFF, 0x0F, 0x00, 0xFE, 0x7F, 0x08, 0x80, 0xFF, 0x07, 0x00, 
  0x7C, 0xFF, 0x01, 0x00, 0x86, 0x7E, 0x00, 0x00, 0xA2, 0x3D, 0x00, 0x00, 
  0x3B, 0x0F, 0x00, 0x00, 0x79, 0x03, 0x00, 0x00, 0x3B, 0x01, 0x00, 0x00, 
  0x82, 0x01, 0x00, 0x00, 0xEC, 0x0F, 0x00, 0x00, 0x38, 0x1F, 0x00, 0x00, 
  0xC0, 0x3F, 0x00, 0x00, 0x80, 0x7F, 0x00, 0x00, 0x80, 0xFF, 0x00, 0x00, 
  0x00, 0xFF, 0x01, 0x00, 0x00, 0xFC, 0x03, 0x00, 0x00, 0xFC, 0x03, 0x00, 
  0x00, 0xF8, 0x3F, 0x00, 0x00, 0x00, 0x20, 0x00, 0x00, 0x0C, 0x40, 0x00, 
  0x00, 0x08, 0x20, 0x00, 0x00, 0xF8, 0x7F, 0x00, };
